<svg xmlns="http://www.w3.org/2000/svg" width="256" height="256" viewBox="0 0 128 128">
  <defs>
    <linearGradient id="gm21" x1="0" y1="0" x2="1" y2="1">
      <stop offset="0" stop-color="#111827"/>
      <stop offset="1" stop-color="#05070E"/>
    </linearGradient>
    <filter id="sm21" x="-20%" y="-20%" width="140%" height="140%">
      <feDropShadow dx="0" dy="6" stdDeviation="6" flood-color="#000" flood-opacity=".35"/>
    </filter>
  </defs>
  <rect x="6" y="6" width="116" height="116" rx="26" fill="url(#gm21)" />
  <g filter="url(#sm21)">
    <!-- shoulders -->
    <path d="M22 114c6-22 22-36 42-36s36 14 42 36" fill="#A78BFA" opacity=".18"/>
    <path d="M26 112c6-18 20-30 38-30s32 12 38 30" fill="#A78BFA" opacity=".22"/>
    <!-- neck -->
    <rect x="56" y="70" width="16" height="14" rx="6" fill="#F0C4A0" opacity=".95"/>
    <!-- face -->
    <circle cx="64" cy="54" r="22" fill="#F0C4A0" />
    <!-- headwear -->
    
        <path d="M34 40c0-18 12-30 30-30s30 12 30 30c0 8-2 14-5 20H39c-3-6-5-12-5-20z" fill="#DDD6FE" opacity=".95"/>
        <path d="M40 42h48v10H40z" fill="#A78BFA" opacity=".30"/>
        <path d="M44 30h40v6H44z" fill="#111827" opacity=".55"/>
        
    <!-- eyes -->
    <circle cx="56" cy="54" r="2.5" fill="#0F172A" opacity=".75"/>
    <circle cx="72" cy="54" r="2.5" fill="#0F172A" opacity=".75"/>
    <!-- smile -->
    <path d="M56 62c3 4 13 4 16 0" stroke="#0F172A" stroke-width="2.4" stroke-linecap="round" fill="none" opacity=".55"/>
  </g>
</svg>