<svg xmlns="http://www.w3.org/2000/svg" width="256" height="256" viewBox="0 0 128 128">
  <defs>
    <linearGradient id="gf5" x1="0" y1="0" x2="1" y2="1">
      <stop offset="0" stop-color="#0A0F1E"/>
      <stop offset="1" stop-color="#05070E"/>
    </linearGradient>
    <filter id="sf5" x="-20%" y="-20%" width="140%" height="140%">
      <feDropShadow dx="0" dy="6" stdDeviation="6" flood-color="#000" flood-opacity=".35"/>
    </filter>
  </defs>
  <rect x="6" y="6" width="116" height="116" rx="26" fill="url(#gf5)" />
  <g filter="url(#sf5)">
    <!-- shoulders -->
    <path d="M22 114c6-22 22-36 42-36s36 14 42 36" fill="#60A5FA" opacity=".18"/>
    <path d="M26 112c6-18 20-30 38-30s32 12 38 30" fill="#60A5FA" opacity=".22"/>
    <!-- neck -->
    <rect x="56" y="70" width="16" height="14" rx="6" fill="#F0C4A0" opacity=".95"/>
    <!-- face -->
    <circle cx="64" cy="54" r="22" fill="#F0C4A0" />
    <!-- headwear -->
    
        <path d="M34 38c0-16 12-28 30-28s30 12 30 28c0 8-3 14-7 20H41c-4-6-7-12-7-20z" fill="#BFDBFE" opacity=".95"/>
        <path d="M38 48c4 14 16 24 26 26h0c10-2 22-12 26-26-4-10-14-18-26-18S42 38 38 48z" fill="#60A5FA" opacity=".35"/>
        
    <!-- eyes -->
    <circle cx="56" cy="54" r="2.5" fill="#111827" opacity=".75"/>
    <circle cx="72" cy="54" r="2.5" fill="#111827" opacity=".75"/>
    <!-- smile -->
    <path d="M56 62c3 4 13 4 16 0" stroke="#111827" stroke-width="2.4" stroke-linecap="round" fill="none" opacity=".55"/>
  </g>
</svg>